<svg height="24" width="24" xmlns="http://www.w3.org/2000/svg"><path d="M22 13c0 5.523-4.477 10-10 10-5.5228 0-10-4.477-10-10C2 7.4772 6.4772 3 12 3c5.523 0 10 4.4772 10 10z" fill="#c0392b"/><path d="M22 12c0 5.523-4.477 10-10 10-5.5228 0-10-4.477-10-10C2 6.4772 6.4772 2 12 2c5.523 0 10 4.4772 10 10z" fill="#e74c3c"/><path d="M7.0503 9.4L10.586 13l-3.5357 3.5 1.4142 1.4L12 14.4l3.536 3.5 1.414-1.4-3.536-3.5 3.536-3.6L15.536 8 12 11.5 8.4645 8 7.0503 9.4z" fill="#c0392b"/><path d="M7.0503 8.4L10.586 12l-3.5357 3.5 1.4142 1.4L12 13.4l3.536 3.5 1.414-1.4-3.536-3.5 3.536-3.6L15.536 7 12 10.5 8.4645 7 7.0503 8.4z" fill="#ecf0f1"/></svg>