<svg xmlns="http://www.w3.org/2000/svg" viewBox="0 0 502 120"><g fill="#394263"><path d="M160.8 74.6h-17.5v18.2h-11.7V31c9.7 0 19.4-.1 29.2-.1 30.2 0 30.3 43.7 0 43.7zM143.3 64h17.5c14.9 0 14.9-21.9 0-21.9h-17.5V64z"/><path d="M223.3 49.3h10.3v43.6h-10.2l-.5-6.4c-2.5 5.1-9.3 7.6-14.1 7.7-12.9.1-22.5-7.9-22.5-23.2 0-15 10-22.9 22.7-22.8 5.8 0 11.4 2.7 13.9 7.1l.4-6zM197.1 71c0 8.3 5.7 13.3 12.9 13.3 17 0 17-26.4 0-26.4-7.1 0-12.9 4.8-12.9 13.1zM271.2 60.9c-3.1-2.9-6.6-3.9-10.8-3.9-5.1 0-8 1.6-8 4.3 0 2.8 2.6 4.4 8.1 4.8 8.2.5 18.7 2.4 18.7 14 0 7.7-6.3 14.3-18.7 14.3-6.9 0-13.8-1.1-20.2-7.8l5.3-7.7c3.1 3.4 10.2 6 15 6.1 4.1.1 7.9-2 7.9-5.2 0-3-2.5-4.2-8.7-4.6-8.2-.6-18-3.6-18-13.5 0-10.1 10.4-13.6 18.4-13.6 6.8 0 11.9 1.3 17 5.7l-6 7.1zM314.6 60.9C311.5 58 308 57 303.8 57c-5.1 0-8 1.6-8 4.3 0 2.8 2.6 4.4 8.1 4.8 8.2.5 18.7 2.4 18.7 14 0 7.7-6.3 14.3-18.7 14.3-6.9 0-13.8-1.1-20.2-7.8l5.3-7.7c3.1 3.4 10.2 6 15 6.1 4.1.1 7.9-2 7.9-5.2 0-3-2.5-4.2-8.7-4.6-8.2-.6-18-3.6-18-13.5 0-10.1 10.4-13.6 18.4-13.6 6.8 0 11.9 1.3 17 5.7l-6 7.1zM364.1 49.3h10.3v43.6h-10.2l-.5-6.4c-2.5 5.1-9.3 7.6-14.1 7.7-12.9.1-22.5-7.9-22.5-23.2 0-15 10-22.9 22.7-22.8 5.8 0 11.4 2.7 13.9 7.1l.4-6zM338 71c0 8.3 5.7 13.3 12.9 13.3 17 0 17-26.4 0-26.4-7.2 0-12.9 4.8-12.9 13.1zM393.5 31.1v24.1c2.6-4.5 9.7-7 14.3-7C420.5 48.2 430 56 430 71c0 14.3-9.6 22.8-22.5 22.8-5.3 0-10.7-1.8-14.1-7l-.7 6h-10.1V31.1h10.9zm.7 39.9c0 7.9 5.8 12.8 12.6 12.8 6.9 0 12.4-5.2 12.4-12.8 0-7.9-5.5-12.7-12.4-12.7-6.8 0-12.6 5.1-12.6 12.7zM448.6 31.1v61.8h-10.7V31.1h10.7zM467.3 74.9c.7 5.4 5.4 9.3 13 9.3 4 0 9.2-1.5 11.7-4.1l6.9 6.8c-4.6 4.8-12.1 7.1-18.7 7.1-15 0-24-9.3-24-23.2 0-13.3 9-22.8 23.2-22.8 14.6 0 23.7 9 22 27h-34.1zM491 66c-.7-5.7-5.1-8.5-11.3-8.5-5.8 0-10.6 2.8-12.2 8.5H491z"/></g><path d="M23.6 73.2c-4.3-4.5-7.1-4.4-8.6-3.5 0-.1-.1-.1-.1-.2C26 57 28.5 77.7 43.8 71 52 67.4 62 57.3 71.9 47.5c-8.9 1.1-19.8 3.6-34.5 7.9C19.5 60.6 8 60.4.5 58.1v15.4c5.8-1.1 13.4-1.5 23.1-.3zM67.2 76.5c-1.3 2.8-2.7 5.2-4 7.3 17.9 4.4 33 5 45.6 2.8.9-2.5 1.4-5.1 1.4-7.8v-24c-8.2-4-15-6.6-22.7-7.5-7.9 8.3-15.2 18.6-20.3 29.2z" fill="#559adf"/><path d="M103 24.8l-.2-.2c-.5.2-.9.4-1.4.6.5-.1 1.1-.3 1.6-.4zM37.4 55.4c14.7-4.3 25.5-6.8 34.5-7.9C80.3 39.2 88.8 31 96 27.3c-12.4 4.2-27.5 5.7-44.3-.6-18.9-7.1-32.2-6.8-41.2-4.1C4.3 26.7.5 33.7.5 41.2v16.9c7.4 2.3 19 2.5 36.9-2.7zM87.5 47.3c7.7.9 14.5 3.5 22.7 7.5V41.2c0-3.3-.7-6.4-2-9.3-6.7 3-13.9 8.4-20.7 15.4z" fill="#20b6ad"/><path d="M51.8 26.7c16.8 6.3 31.9 4.9 44.3.6.9-.5 1.7-.9 2.6-1.2l2.7-.9c.5-.2 1-.4 1.4-.6-1.1-1-2.4-1.9-3.7-2.7L66.5 3.1c-6.9-4-15.4-4-22.4 0L11.7 21.9c-.4.2-.7.4-1.1.7 9-2.7 22.3-3 41.2 4.1z" fill="#e8e9fe"/><path d="M63.2 83.8C51.6 102.3 40 96.6 29.3 80.5c-2.1-3.2-4-5.5-5.7-7.2-9.7-1.3-17.3-.9-23.1.2v5.2c0 8 4.3 15.4 11.2 19.4l32.5 18.8c6.9 4 15.4 4 22.4 0L99 98.1c4.6-2.6 8-6.8 9.8-11.6-12.6 2.3-27.7 1.6-45.6-2.7z" fill="#394263"/><path d="M96 27.3c1.8-.6 3.6-1.3 5.3-2.1-.9.2-1.8.5-2.7.9-.8.3-1.7.7-2.6 1.2z" fill="#fff"/></svg>