<?xml version="1.0" encoding="utf-8"?>
<!-- Generator: Adobe Illustrator 21.1.0, SVG Export Plug-In . SVG Version: 6.00 Build 0)  -->
<svg version="1.1" id="Layer_1" xmlns="http://www.w3.org/2000/svg" xmlns:xlink="http://www.w3.org/1999/xlink" x="0px" y="0px"
	 viewBox="0 0 502 120" style="enable-background:new 0 0 502 120;" xml:space="preserve">
<g>
	<g>
		<g>
			<path style="fill:#394263;" d="M160.8,74.6h-17.5v18.2h-11.7V31c9.7,0,19.4-0.1,29.2-0.1C191,30.9,191.1,74.6,160.8,74.6z
				 M143.3,64h17.5c14.9,0,14.9-21.9,0-21.9h-17.5V64z"/>
			<path style="fill:#394263;" d="M223.3,49.3h10.3v43.6h-10.2l-0.5-6.4c-2.5,5.1-9.3,7.6-14.1,7.7c-12.9,0.1-22.5-7.9-22.5-23.2
				c0-15,10-22.9,22.7-22.8c5.8,0,11.4,2.7,13.9,7.1L223.3,49.3z M197.1,71c0,8.3,5.7,13.3,12.9,13.3c17,0,17-26.4,0-26.4
				C202.9,57.9,197.1,62.7,197.1,71z"/>
			<path style="fill:#394263;" d="M271.2,60.9c-3.1-2.9-6.6-3.9-10.8-3.9c-5.1,0-8,1.6-8,4.3c0,2.8,2.6,4.4,8.1,4.8
				c8.2,0.5,18.7,2.4,18.7,14c0,7.7-6.3,14.3-18.7,14.3c-6.9,0-13.8-1.1-20.2-7.8l5.3-7.7c3.1,3.4,10.2,6,15,6.1
				c4.1,0.1,7.9-2,7.9-5.2c0-3-2.5-4.2-8.7-4.6c-8.2-0.6-18-3.6-18-13.5c0-10.1,10.4-13.6,18.4-13.6c6.8,0,11.9,1.3,17,5.7
				L271.2,60.9z"/>
			<path style="fill:#394263;" d="M314.6,60.9c-3.1-2.9-6.6-3.9-10.8-3.9c-5.1,0-8,1.6-8,4.3c0,2.8,2.6,4.4,8.1,4.8
				c8.2,0.5,18.7,2.4,18.7,14c0,7.7-6.3,14.3-18.7,14.3c-6.9,0-13.8-1.1-20.2-7.8l5.3-7.7c3.1,3.4,10.2,6,15,6.1
				c4.1,0.1,7.9-2,7.9-5.2c0-3-2.5-4.2-8.7-4.6c-8.2-0.6-18-3.6-18-13.5c0-10.1,10.4-13.6,18.4-13.6c6.8,0,11.9,1.3,17,5.7
				L314.6,60.9z"/>
			<path style="fill:#394263;" d="M364.1,49.3h10.3v43.6h-10.2l-0.5-6.4c-2.5,5.1-9.3,7.6-14.1,7.7c-12.9,0.1-22.5-7.9-22.5-23.2
				c0-15,10-22.9,22.7-22.8c5.8,0,11.4,2.7,13.9,7.1L364.1,49.3z M338,71c0,8.3,5.7,13.3,12.9,13.3c17,0,17-26.4,0-26.4
				C343.7,57.9,338,62.7,338,71z"/>
			<path style="fill:#394263;" d="M393.5,31.1v24.1c2.6-4.5,9.7-7,14.3-7C420.5,48.2,430,56,430,71c0,14.3-9.6,22.8-22.5,22.8
				c-5.3,0-10.7-1.8-14.1-7l-0.7,6h-10.1V31.1H393.5z M394.2,71c0,7.9,5.8,12.8,12.6,12.8c6.9,0,12.4-5.2,12.4-12.8
				c0-7.9-5.5-12.7-12.4-12.7C400,58.3,394.2,63.4,394.2,71z"/>
			<path style="fill:#394263;" d="M448.6,31.1v61.8h-10.7V31.1H448.6z"/>
			<path style="fill:#394263;" d="M467.3,74.9c0.7,5.4,5.4,9.3,13,9.3c4,0,9.2-1.5,11.7-4.1l6.9,6.8c-4.6,4.8-12.1,7.1-18.7,7.1
				c-15,0-24-9.3-24-23.2c0-13.3,9-22.8,23.2-22.8c14.6,0,23.7,9,22,27H467.3z M491,66c-0.7-5.7-5.1-8.5-11.3-8.5
				c-5.8,0-10.6,2.8-12.2,8.5H491z"/>
		</g>
	</g>
	<g>
		<path style="fill:#559ADF;" d="M23.6,73.2c-4.3-4.5-7.1-4.4-8.6-3.5c0-0.1-0.1-0.1-0.1-0.2C26,57,28.5,77.7,43.8,71
			c8.2-3.6,18.2-13.7,28.1-23.5c-8.9,1.1-19.8,3.6-34.5,7.9c-17.9,5.2-29.4,5-36.9,2.7v15.4C6.3,72.4,13.9,72,23.6,73.2z"/>
		<path style="fill:#559ADF;" d="M67.2,76.5c-1.3,2.8-2.7,5.2-4,7.3c17.9,4.4,33,5,45.6,2.8c0.9-2.5,1.4-5.1,1.4-7.8V54.8
			c-8.2-4-15-6.6-22.7-7.5C79.6,55.6,72.3,65.9,67.2,76.5z"/>
		<path style="fill:#20B6AD;" d="M103,24.8c-0.1-0.1-0.2-0.2-0.2-0.2c-0.5,0.2-0.9,0.4-1.4,0.6C101.9,25.1,102.5,24.9,103,24.8z"/>
		<path style="fill:#20B6AD;" d="M37.4,55.4c14.7-4.3,25.5-6.8,34.5-7.9C80.3,39.2,88.8,31,96,27.3c-12.4,4.2-27.5,5.7-44.3-0.6
			c-18.9-7.1-32.2-6.8-41.2-4.1C4.3,26.7,0.5,33.7,0.5,41.2v16.9C7.9,60.4,19.5,60.6,37.4,55.4z"/>
		<path style="fill:#20B6AD;" d="M87.5,47.3c7.7,0.9,14.5,3.5,22.7,7.5V41.2c0-3.3-0.7-6.4-2-9.3C101.5,34.9,94.3,40.3,87.5,47.3z"
			/>
		<path style="fill:#E8E9FE;" d="M51.8,26.7c16.8,6.3,31.9,4.9,44.3,0.6c0.9-0.5,1.7-0.9,2.6-1.2c0.9-0.3,1.8-0.6,2.7-0.9
			c0.5-0.2,1-0.4,1.4-0.6c-1.1-1-2.4-1.9-3.7-2.7L66.5,3.1c-6.9-4-15.4-4-22.4,0L11.7,21.9c-0.4,0.2-0.7,0.4-1.1,0.7
			C19.6,19.9,32.9,19.6,51.8,26.7z"/>
		<path style="fill:#394263;" d="M63.2,83.8C51.6,102.3,40,96.6,29.3,80.5c-2.1-3.2-4-5.5-5.7-7.2C13.9,72,6.3,72.4,0.5,73.5v5.2
			c0,8,4.3,15.4,11.2,19.4l32.5,18.8c6.9,4,15.4,4,22.4,0L99,98.1c4.6-2.6,8-6.8,9.8-11.6C96.2,88.8,81.1,88.1,63.2,83.8z"/>
		<path style="fill:#FFFFFF;" d="M96,27.3c1.8-0.6,3.6-1.3,5.3-2.1c-0.9,0.2-1.8,0.5-2.7,0.9C97.8,26.4,96.9,26.8,96,27.3z"/>
	</g>
</g>
</svg>
