<svg height="24" width="24" xmlns="http://www.w3.org/2000/svg"><path d="M22 13c0 5.523-4.477 10-10 10-5.5228 0-10-4.477-10-10C2 7.4772 6.4772 3 12 3c5.523 0 10 4.4772 10 10z" fill="#27ae60"/><path d="M22 12c0 5.523-4.477 10-10 10-5.5228 0-10-4.477-10-10C2 6.4772 6.4772 2 12 2c5.523 0 10 4.4772 10 10z" fill="#2ecc71"/><path d="M16 9l-6 6-2.5-2.5-2.125 2.1 2.5 2.5 2 2 .125.1 8.125-8.1L16 9z" fill="#27ae60"/><path d="M16 8l-6 6-2.5-2.5-2.125 2.1 2.5 2.5 2 2 .125.1 8.125-8.1L16 8z" fill="#ecf0f1"/></svg>